<svg width="100" height="100" viewBox="0 0 100 100" fill="none" xmlns="http://www.w3.org/2000/svg">
<path d="M62.6152 79.4519C62.4345 80.394 61.6103 81.0752 60.651 81.0752H52.8153C51.5596 81.0752 50.6145 79.9315 50.8511 78.6983L61.9925 20.6232C62.1732 19.6811 62.9974 19 63.9567 19H71.7895C73.0451 19 73.9902 20.1435 73.7537 21.3767L62.6152 79.4519Z" fill="#23C55E"/>
<path d="M37.2201 79.4519C37.0394 80.394 36.2152 81.0752 35.2559 81.0752H27.4202C26.1645 81.0752 25.2194 79.9315 25.456 78.6983L36.5973 20.6232C36.7781 19.6811 37.6023 19 38.5615 19H46.3943C47.65 19 48.5951 20.1435 48.3585 21.3767L37.2201 79.4519Z" fill="#23C55E"/>
</svg>
