<?xml version="1.0" encoding="UTF-8"?>
<svg id="Camada_1" data-name="Camada 1" xmlns="http://www.w3.org/2000/svg" viewBox="0 0 1415.06 215.12">
  <defs>
    <style>
      .cls-1 {
        fill: #2630ac;
      }
    </style>
  </defs>
  <g>
    <path d="M158.38,93.01c6.05-11.57,14.28-20.43,24.68-26.62,10.39-6.18,21.93-9.24,34.61-9.15,9.64.06,18.83,2.22,27.56,6.47,8.72,4.25,15.64,9.87,20.77,16.87l.45-70.44,38.03.24-1.26,198.2-38.03-.24.14-21.96c-4.69,7.29-11.24,13.14-19.66,17.55-8.42,4.41-18.16,6.59-29.23,6.51-12.5-.08-23.92-3.37-34.23-9.87-10.32-6.48-18.43-15.6-24.33-27.34-5.91-11.72-8.81-25.19-8.72-40.36.09-15,3.17-28.28,9.22-39.85ZM260.72,110.67c-3.53-6.54-8.32-11.57-14.36-15.09-6.05-3.53-12.56-5.31-19.52-5.35-6.96-.05-13.4,1.61-19.31,4.96-5.92,3.35-10.72,8.28-14.42,14.77-3.71,6.5-5.58,14.21-5.64,23.14-.05,8.93,1.72,16.75,5.34,23.46,3.62,6.72,8.41,11.88,14.36,15.49,5.96,3.61,12.33,5.44,19.12,5.48,6.96.04,13.49-1.65,19.59-5.1,6.09-3.44,10.94-8.42,14.55-14.91,3.61-6.49,5.45-14.29,5.51-23.4.06-9.11-1.68-16.93-5.2-23.47Z"/>
    <path d="M356.56,201.81c-11.39-6.41-20.31-15.44-26.74-27.09-6.45-11.65-9.62-25.06-9.52-40.24s3.53-28.55,10.3-40.12c6.77-11.56,15.97-20.47,27.62-26.74,11.65-6.26,24.61-9.36,38.9-9.27,14.28.09,27.21,3.35,38.78,9.75,11.57,6.42,20.66,15.44,27.28,27.09,6.63,11.65,9.89,25.07,9.79,40.24-.1,15.18-3.62,28.55-10.57,40.11-6.95,11.57-16.29,20.48-28.02,26.74-11.74,6.26-24.83,9.36-39.3,9.27-14.29-.09-27.13-3.35-38.51-9.75ZM414.46,174.05c6.01-3.26,10.81-8.19,14.42-14.78,3.61-6.58,5.45-14.6,5.51-24.07.09-14.1-3.55-24.98-10.91-32.61-7.36-7.64-16.4-11.49-27.12-11.56-10.71-.07-19.7,3.67-26.98,11.21-7.28,7.54-10.97,18.37-11.06,32.47-.09,14.11,3.36,24.98,10.37,32.61,7,7.63,15.87,11.48,26.58,11.55,6.78.05,13.18-1.56,19.18-4.84Z"/>
    <path d="M630.38,62.26l-.94,148.38-37.76-.24.12-18.75c-4.87,6.4-11.19,11.41-18.98,15.01-7.79,3.62-16.24,5.39-25.34,5.33-11.61-.08-21.86-2.59-30.76-7.56-8.9-4.97-15.86-12.24-20.88-21.83-5.03-9.58-7.51-20.98-7.42-34.2l.56-87.04,37.49.24-.52,81.68c-.08,11.78,2.82,20.87,8.67,27.25,5.85,6.38,13.86,9.6,24.04,9.66,10.35.07,18.5-3.05,24.43-9.35,5.93-6.3,8.93-15.35,9.01-27.13l.52-81.68,37.76.24Z"/>
    <path d="M714.05,67.08c8.51-4.41,18.2-6.58,29.1-6.51,12.67.08,24.13,3.28,34.35,9.6,10.23,6.32,18.3,15.24,24.21,26.8,5.9,11.56,8.81,24.93,8.72,40.11-.1,15.18-3.17,28.59-9.23,40.24-6.06,11.66-14.24,20.67-24.55,27.03-10.31,6.37-21.8,9.51-34.47,9.43-11.08-.07-20.73-2.32-29.01-6.75-8.28-4.43-14.89-10.15-19.85-17.13l-.14,21.16-37.5-.24,1.26-198.19,37.5.23-.45,71.51c4.87-7.1,11.56-12.86,20.07-17.28ZM766.79,113.62c-3.62-6.54-8.42-11.53-14.37-14.96-5.96-3.43-12.42-5.17-19.38-5.21-6.78-.05-13.18,1.65-19.19,5.1-6,3.44-10.85,8.46-14.56,15.04-3.7,6.59-5.58,14.34-5.63,23.27-.06,8.93,1.72,16.71,5.34,23.34,3.62,6.63,8.41,11.7,14.36,15.22,5.96,3.53,12.33,5.3,19.12,5.35,6.96.05,13.44-1.7,19.45-5.23,6-3.53,10.86-8.59,14.56-15.17,3.7-6.59,5.58-14.43,5.64-23.54.06-8.93-1.73-16.66-5.34-23.2Z"/>
    <path d="M865.31,13.94l-1.26,198.19-37.5-.23,1.26-198.2,37.5.24Z"/>
    <path d="M1027.57,150.23l-108.48-.69c.83,10.72,4.53,19.14,11.09,25.25,6.57,6.11,14.68,9.2,24.32,9.26,13.93.09,23.88-5.82,29.84-17.75l40.45.26c-4.38,14.26-12.66,25.95-24.87,35.06-12.21,9.13-27.14,13.63-44.82,13.51-14.29-.09-27.07-3.35-38.38-9.75-11.3-6.41-20.08-15.43-26.34-27.09-6.27-11.64-9.36-25.05-9.26-40.24.1-15.35,3.3-28.81,9.63-40.38,6.32-11.57,15.12-20.43,26.41-26.62,11.3-6.18,24.25-9.22,38.9-9.13,14.1.09,26.71,3.21,37.84,9.35,11.12,6.14,19.73,14.81,25.82,26.01,6.09,11.2,9.09,24.03,8.99,38.49-.04,5.36-.42,10.18-1.17,14.46ZM989.96,124.81c-.12-9.64-3.55-17.39-10.3-23.23-6.75-5.85-15.03-8.81-24.85-8.87-9.28-.06-17.12,2.71-23.49,8.29-6.37,5.59-10.3,13.37-11.8,23.37l70.45.44Z"/>
  </g>
  <polygon class="cls-1" points="100.74 211.72 62.23 211.72 100.74 11.48 139.24 11.48 100.74 211.72"/>
  <g>
    <path d="M1122.37,11.49l-36.34,197.97-37.77-.23,36.34-197.97,37.77.24Z"/>
    <path d="M1176.96,61.66l-27.18,148.21-37.77-.24,27.19-148.21,37.76.24ZM1147.38,38.7c-3.56-3.41-5.31-7.71-5.28-12.89.05-7.14,2.81-13.24,8.29-18.3,5.48-5.05,11.88-7.56,19.2-7.51,5.71.04,10.33,1.77,13.89,5.18,3.55,3.41,5.31,7.71,5.27,12.89-.05,7.14-2.75,13.24-8.15,18.29-5.38,5.05-11.74,7.56-19.06,7.51-5.9-.04-10.62-1.76-14.16-5.17Z"/>
    <path d="M1204.3,207.13c-8.82-3.71-15.75-8.84-20.79-15.39-5.05-6.55-7.55-14.02-7.49-22.41,0-1.25.2-3.3.57-6.16l36.43.23c-.58,6.25,1.26,11.3,5.52,15.17,4.27,3.87,10.32,5.82,18.19,5.87,7.14.05,13.09-1.2,17.83-3.77,4.75-2.56,7.14-6.34,7.17-11.34.03-4.46-2.14-8.05-6.49-10.75-4.36-2.71-11.26-5.78-20.7-9.24-9.44-3.44-17.28-6.81-23.5-10.06-6.23-3.26-11.56-7.75-15.98-13.49-4.44-5.75-6.62-12.99-6.56-21.74.05-8.75,2.65-16.49,7.78-23.25,5.13-6.75,12.26-11.97,21.4-15.66,9.12-3.69,19.58-5.51,31.37-5.43,11.25.08,21.15,2.02,29.7,5.81,8.54,3.81,15.16,9.07,19.85,15.8,4.69,6.72,7.01,14.36,6.96,22.94-.02,2.14-.11,3.75-.29,4.82l-34.82-.22c.57-6.25-1.18-11.26-5.26-15.03-4.09-3.78-10.06-5.69-17.91-5.75-6.42-.04-11.7,1.32-15.82,4.05-4.12,2.75-6.2,6.44-6.23,11.08-.03,4.64,2.26,8.45,6.89,11.42,4.62,2.98,11.75,6.29,21.36,9.91,9.63,3.81,17.33,7.3,23.1,10.46,5.78,3.17,10.8,7.48,15.06,12.95,4.26,5.48,6.35,12.33,6.29,20.53-.05,9.11-2.88,17.04-8.45,23.79-5.58,6.75-13.2,11.88-22.86,15.39-9.66,3.51-20.57,5.23-32.71,5.15-10.9-.07-20.75-1.96-29.56-5.69Z"/>
    <path d="M1363.26,165.42c-.2,1.08-.29,2.5-.3,4.29-.02,3.57.99,6.12,3.04,7.66,2.03,1.53,5.48,2.3,10.29,2.33l17.68.11-5.83,31.58-23.83-.16c-26.78-.17-40.1-11.42-39.96-33.73.02-4.29.41-8.48,1.14-12.58l13.05-71.43-17.68-.11,5.55-30.77,17.94.11,6.66-36.65,37.77.24-6.66,36.65,32.94.21-5.55,30.76-33.21-.21-13.04,71.7Z"/>
  </g>
  <polygon class="cls-1" points="38.51 211.72 0 211.72 38.51 11.48 77.01 11.48 38.51 211.72"/>
</svg>