<svg width="260" height="64" viewBox="0 0 260 64" fill="none" xmlns="http://www.w3.org/2000/svg">
<path d="M234.465 63.9999C233.285 63.9999 232.178 63.9051 231.145 63.7153C230.125 63.5401 229.281 63.3138 228.611 63.0364L230.708 56.0729C231.8 56.4087 232.783 56.5912 233.657 56.6204C234.545 56.6496 235.309 56.4452 235.95 56.0073C236.605 55.5693 237.137 54.8248 237.545 53.7737L238.091 52.3503L226.055 17.7518H235.841L242.787 42.4525H243.137L250.148 17.7518H260L246.959 55.0219C246.333 56.8321 245.481 58.4087 244.404 59.7518C243.341 61.1094 241.994 62.1532 240.363 62.8832C238.732 63.6277 236.766 63.9999 234.465 63.9999Z" fill="url(#paint0_linear_41_33)"/>
<path d="M221.266 6.54004V51.3867H211.96V6.54004H221.266Z" fill="url(#paint1_linear_41_33)"/>
<path d="M185.218 51.9341C182.67 51.9341 180.362 51.2772 178.294 49.9633C176.24 48.6349 174.609 46.686 173.401 44.1166C172.207 41.5327 171.61 38.3648 171.61 34.613C171.61 30.759 172.229 27.5546 173.466 24.9999C174.704 22.4305 176.35 20.5108 178.403 19.2408C180.471 17.9561 182.735 17.3137 185.196 17.3137C187.075 17.3137 188.64 17.6349 189.893 18.2773C191.16 18.905 192.179 19.6933 192.951 20.6422C193.737 21.5765 194.334 22.4962 194.742 23.4013H195.026V6.54004H204.31V51.3867H195.135V45.9998H194.742C194.305 46.9341 193.686 47.8612 192.885 48.7809C192.099 49.686 191.072 50.4378 189.805 51.0363C188.553 51.6349 187.024 51.9341 185.218 51.9341ZM188.167 44.5108C189.667 44.5108 190.934 44.102 191.968 43.2845C193.016 42.4524 193.817 41.2918 194.371 39.8028C194.939 38.3137 195.223 36.5692 195.223 34.5692C195.223 32.5692 194.946 30.832 194.393 29.3575C193.839 27.8831 193.038 26.7444 191.99 25.9415C190.941 25.1386 189.667 24.7371 188.167 24.7371C186.638 24.7371 185.349 25.1532 184.301 25.9853C183.252 26.8174 182.459 27.9707 181.92 29.4451C181.381 30.9196 181.112 32.6276 181.112 34.5692C181.112 36.5254 181.381 38.2553 181.92 39.759C182.473 41.248 183.267 42.4159 184.301 43.2626C185.349 44.0947 186.638 44.5108 188.167 44.5108Z" fill="url(#paint2_linear_41_33)"/>
<path d="M143.895 31.9417V51.3869H134.59V17.7519H143.458V23.6862H143.852C144.594 21.73 145.839 20.1826 147.587 19.0439C149.334 17.8906 151.453 17.314 153.943 17.314C156.273 17.314 158.305 17.8249 160.038 18.8468C161.771 19.8687 163.118 21.3286 164.079 23.2264C165.04 25.1096 165.521 27.3577 165.521 29.9709V51.3869H156.215V31.6351C156.23 29.5767 155.705 27.9709 154.642 26.8176C153.579 25.6497 152.116 25.0658 150.252 25.0658C148.999 25.0658 147.893 25.3358 146.932 25.876C145.985 26.4161 145.242 27.2045 144.704 28.241C144.179 29.2629 143.91 30.4964 143.895 31.9417Z" fill="url(#paint3_linear_41_33)"/>
<path d="M95.6646 64V17.7519H104.839V23.4015H105.254C105.662 22.4964 106.251 21.5767 107.023 20.6424C107.81 19.6935 108.829 18.9052 110.081 18.2775C111.348 17.6351 112.921 17.314 114.8 17.314C117.246 17.314 119.503 17.9563 121.571 19.241C123.639 20.511 125.292 22.4307 126.53 25.0001C127.767 27.5548 128.386 30.7592 128.386 34.6132C128.386 38.365 127.782 41.5329 126.573 44.1168C125.379 46.6862 123.748 48.6351 121.68 49.9636C119.627 51.2774 117.326 51.9344 114.778 51.9344C112.972 51.9344 111.436 51.6351 110.169 51.0365C108.916 50.438 107.89 49.6862 107.089 48.7811C106.288 47.8614 105.676 46.9344 105.254 46.0001H104.97V64H95.6646ZM104.773 34.5694C104.773 36.5694 105.05 38.3139 105.603 39.803C106.157 41.292 106.958 42.4526 108.006 43.2847C109.055 44.1022 110.329 44.511 111.829 44.511C113.343 44.511 114.625 44.0949 115.673 43.2628C116.722 42.4161 117.515 41.2482 118.054 39.7592C118.608 38.2555 118.884 36.5256 118.884 34.5694C118.884 32.6278 118.615 30.9198 118.076 29.4453C117.537 27.9709 116.744 26.8176 115.695 25.9855C114.647 25.1534 113.358 24.7373 111.829 24.7373C110.314 24.7373 109.033 25.1388 107.984 25.9417C106.95 26.7446 106.157 27.8833 105.603 29.3577C105.05 30.8322 104.773 32.5694 104.773 34.5694Z" fill="url(#paint4_linear_41_33)"/>
<path d="M89.0407 27.3431L80.5217 27.8687C80.3761 27.1388 80.063 26.4818 79.5824 25.8979C79.1019 25.2994 78.4684 24.8249 77.682 24.4745C76.9102 24.1096 75.9855 23.9271 74.9079 23.9271C73.4662 23.9271 72.2502 24.2337 71.26 24.8468C70.2697 25.4453 69.7746 26.2483 69.7746 27.2556C69.7746 28.0585 70.095 28.7373 70.7357 29.292C71.3765 29.8468 72.4759 30.292 74.0341 30.6278L80.1067 31.8541C83.3687 32.5256 85.8006 33.6059 87.4024 35.095C89.0043 36.584 89.8053 38.5402 89.8053 40.9636C89.8053 43.1679 89.1572 45.1022 87.8612 46.7665C86.5797 48.4307 84.8176 49.73 82.575 50.6643C80.3469 51.584 77.7767 52.0438 74.8642 52.0438C70.4226 52.0438 66.884 51.1168 64.2482 49.2628C61.6269 47.3942 60.0906 44.8541 59.6392 41.6424L68.7917 41.1606C69.0683 42.5183 69.7382 43.5548 70.8013 44.2701C71.8643 44.9709 73.2259 45.3212 74.886 45.3212C76.517 45.3212 77.8276 45.0074 78.8179 44.3796C79.8227 43.7373 80.3324 42.9125 80.3469 41.9052C80.3324 41.0585 79.9756 40.365 79.2766 39.8249C78.5776 39.2701 77.5 38.8468 76.0437 38.5548L70.2333 37.3942C66.9568 36.7373 64.5176 35.5986 62.9157 33.9782C61.3284 32.3577 60.5348 30.292 60.5348 27.7811C60.5348 25.6205 61.1172 23.7592 62.2822 22.1972C63.4618 20.6351 65.1146 19.4307 67.2408 18.584C69.3814 17.7373 71.8862 17.314 74.755 17.314C78.9926 17.314 82.3274 18.2118 84.7594 20.0074C87.2059 21.803 88.633 24.2483 89.0407 27.3431Z" fill="url(#paint5_linear_41_33)"/>
<path d="M37.6152 60.4519C37.4345 61.394 36.6103 62.0752 35.651 62.0752H27.8153C26.5596 62.0752 25.6145 60.9315 25.8511 59.6983L36.9925 1.62318C37.1732 0.681091 37.9974 0 38.9567 0H46.7895C48.0451 0 48.9902 1.14355 48.7537 2.37672L37.6152 60.4519Z" fill="#23C55E"/>
<path d="M12.2201 60.4519C12.0394 61.394 11.2152 62.0752 10.2559 62.0752H2.42016C1.16447 62.0752 0.219396 60.9315 0.455978 59.6983L11.5973 1.62318C11.7781 0.681091 12.6023 0 13.5615 0H21.3943C22.65 0 23.5951 1.14355 23.3585 2.37672L12.2201 60.4519Z" fill="#23C55E"/>
<defs>
<linearGradient id="paint0_linear_41_33" x1="275.94" y1="31.2432" x2="57.411" y2="31.2432" gradientUnits="userSpaceOnUse">
<stop stop-color="#D9D9D9"/>
<stop offset="1" stop-color="#737373"/>
</linearGradient>
<linearGradient id="paint1_linear_41_33" x1="275.939" y1="31.2431" x2="57.4109" y2="31.2431" gradientUnits="userSpaceOnUse">
<stop stop-color="#D9D9D9"/>
<stop offset="1" stop-color="#737373"/>
</linearGradient>
<linearGradient id="paint2_linear_41_33" x1="275.94" y1="31.2431" x2="57.411" y2="31.2431" gradientUnits="userSpaceOnUse">
<stop stop-color="#D9D9D9"/>
<stop offset="1" stop-color="#737373"/>
</linearGradient>
<linearGradient id="paint3_linear_41_33" x1="275.939" y1="31.2433" x2="57.4109" y2="31.2433" gradientUnits="userSpaceOnUse">
<stop stop-color="#D9D9D9"/>
<stop offset="1" stop-color="#737373"/>
</linearGradient>
<linearGradient id="paint4_linear_41_33" x1="275.939" y1="31.2433" x2="57.4108" y2="31.2433" gradientUnits="userSpaceOnUse">
<stop stop-color="#D9D9D9"/>
<stop offset="1" stop-color="#737373"/>
</linearGradient>
<linearGradient id="paint5_linear_41_33" x1="275.94" y1="31.2433" x2="57.4111" y2="31.2433" gradientUnits="userSpaceOnUse">
<stop stop-color="#D9D9D9"/>
<stop offset="1" stop-color="#737373"/>
</linearGradient>
</defs>
</svg>
