<svg width="1416" height="216" viewBox="0 0 1416 216" fill="none" xmlns="http://www.w3.org/2000/svg">
<g clip-path="url(#clip0_1_2)">
<path d="M158.38 93.01C164.43 81.44 172.66 72.58 183.06 66.39C193.45 60.21 204.99 57.15 217.67 57.24C227.31 57.3 236.5 59.46 245.23 63.71C253.95 67.96 260.87 73.58 266 80.58L266.45 10.14L304.48 10.38L303.22 208.58L265.19 208.34L265.33 186.38C260.64 193.67 254.09 199.52 245.67 203.93C237.25 208.34 227.51 210.52 216.44 210.44C203.94 210.36 192.52 207.07 182.21 200.57C171.89 194.09 163.78 184.97 157.88 173.23C151.97 161.51 149.07 148.04 149.16 132.87C149.25 117.87 152.33 104.59 158.38 93.02V93.01ZM260.72 110.67C257.19 104.13 252.4 99.1 246.36 95.58C240.31 92.05 233.8 90.27 226.84 90.23C219.88 90.18 213.44 91.84 207.53 95.19C201.61 98.54 196.81 103.47 193.11 109.96C189.4 116.46 187.53 124.17 187.47 133.1C187.42 142.03 189.19 149.85 192.81 156.56C196.43 163.28 201.22 168.44 207.17 172.05C213.13 175.66 219.5 177.49 226.29 177.53C233.25 177.57 239.78 175.88 245.88 172.43C251.97 168.99 256.82 164.01 260.43 157.52C264.04 151.03 265.88 143.23 265.94 134.12C266 125.01 264.26 117.19 260.74 110.65L260.72 110.67Z" fill="#FAFAFA"/>
<path d="M356.56 201.81C345.17 195.4 336.25 186.37 329.82 174.72C323.37 163.07 320.2 149.66 320.3 134.48C320.4 119.3 323.83 105.93 330.6 94.36C337.37 82.8 346.57 73.89 358.22 67.62C369.87 61.36 382.83 58.26 397.12 58.35C411.4 58.44 424.33 61.7 435.9 68.1C447.47 74.52 456.56 83.54 463.18 95.19C469.81 106.84 473.07 120.26 472.97 135.43C472.87 150.61 469.35 163.98 462.4 175.54C455.45 187.11 446.11 196.02 434.38 202.28C422.64 208.54 409.55 211.64 395.08 211.55C380.79 211.46 367.95 208.2 356.57 201.8L356.56 201.81ZM414.46 174.05C420.47 170.79 425.27 165.86 428.88 159.27C432.49 152.69 434.33 144.67 434.39 135.2C434.48 121.1 430.84 110.22 423.48 102.59C416.12 94.95 407.08 91.1 396.36 91.03C385.65 90.96 376.66 94.7 369.38 102.24C362.1 109.78 358.41 120.61 358.32 134.71C358.23 148.82 361.68 159.69 368.69 167.32C375.69 174.95 384.56 178.8 395.27 178.87C402.05 178.92 408.45 177.31 414.45 174.03L414.46 174.05Z" fill="#FAFAFA"/>
<path d="M630.38 62.26L629.44 210.64L591.68 210.4L591.8 191.65C586.93 198.05 580.61 203.06 572.82 206.66C565.03 210.28 556.58 212.05 547.48 211.99C535.87 211.91 525.62 209.4 516.72 204.43C507.82 199.46 500.86 192.19 495.84 182.6C490.81 173.02 488.33 161.62 488.42 148.4L488.98 61.36L526.47 61.6L525.95 143.28C525.87 155.06 528.77 164.15 534.62 170.53C540.47 176.91 548.48 180.13 558.66 180.19C569.01 180.26 577.16 177.14 583.09 170.84C589.02 164.54 592.02 155.49 592.1 143.71L592.62 62.03L630.38 62.27V62.26Z" fill="#FAFAFA"/>
<path d="M714.05 67.08C722.56 62.67 732.25 60.5 743.15 60.57C755.82 60.65 767.28 63.85 777.5 70.17C787.73 76.49 795.8 85.41 801.71 96.97C807.61 108.53 810.52 121.9 810.43 137.08C810.33 152.26 807.26 165.67 801.2 177.32C795.14 188.98 786.96 197.99 776.65 204.35C766.34 210.72 754.85 213.86 742.18 213.78C731.1 213.71 721.45 211.46 713.17 207.03C704.89 202.6 698.28 196.88 693.32 189.9L693.18 211.06L655.68 210.82L656.94 12.63L694.44 12.86L693.99 84.37C698.86 77.27 705.55 71.51 714.06 67.09L714.05 67.08ZM766.79 113.62C763.17 107.08 758.37 102.09 752.42 98.66C746.46 95.23 740 93.49 733.04 93.45C726.26 93.4 719.86 95.1 713.85 98.55C707.85 101.99 703 107.01 699.29 113.59C695.59 120.18 693.71 127.93 693.66 136.86C693.6 145.79 695.38 153.57 699 160.2C702.62 166.83 707.41 171.9 713.36 175.42C719.32 178.95 725.69 180.72 732.48 180.77C739.44 180.82 745.92 179.07 751.93 175.54C757.93 172.01 762.79 166.95 766.49 160.37C770.19 153.78 772.07 145.94 772.13 136.83C772.19 127.9 770.4 120.17 766.79 113.63V113.62Z" fill="#FAFAFA"/>
<path d="M865.31 13.94L864.05 212.13L826.55 211.9L827.81 13.7L865.31 13.94Z" fill="#FAFAFA"/>
<path d="M1027.57 150.23L919.09 149.54C919.92 160.26 923.62 168.68 930.18 174.79C936.75 180.9 944.86 183.99 954.5 184.05C968.43 184.14 978.38 178.23 984.34 166.3L1024.79 166.56C1020.41 180.82 1012.13 192.51 999.92 201.62C987.71 210.75 972.78 215.25 955.1 215.13C940.81 215.04 928.03 211.78 916.72 205.38C905.42 198.97 896.64 189.95 890.38 178.29C884.11 166.65 881.02 153.24 881.12 138.05C881.22 122.7 884.42 109.24 890.75 97.67C897.07 86.1 905.87 77.24 917.16 71.05C928.46 64.87 941.41 61.83 956.06 61.92C970.16 62.01 982.77 65.13 993.9 71.27C1005.02 77.41 1013.63 86.08 1019.72 97.28C1025.81 108.48 1028.81 121.31 1028.71 135.77C1028.67 141.13 1028.29 145.95 1027.54 150.23H1027.57ZM989.96 124.81C989.84 115.17 986.41 107.42 979.66 101.58C972.91 95.73 964.63 92.77 954.81 92.71C945.53 92.65 937.69 95.42 931.32 101C924.95 106.59 921.02 114.37 919.52 124.37L989.97 124.81H989.96Z" fill="#FAFAFA"/>
<path d="M100.74 211.72H62.23L100.74 11.48H139.24L100.74 211.72Z" fill="#2630AC"/>
<path d="M1122.37 11.49L1086.03 209.46L1048.26 209.23L1084.6 11.26L1122.37 11.5V11.49Z" fill="#FAFAFA"/>
<path d="M1176.96 61.66L1149.78 209.87L1112.01 209.63L1139.2 61.42L1176.96 61.66ZM1147.38 38.7C1143.82 35.29 1142.07 30.99 1142.1 25.81C1142.15 18.67 1144.91 12.57 1150.39 7.51C1155.87 2.46 1162.27 -0.05 1169.59 1.86265e-08C1175.3 0.04 1179.92 1.77 1183.48 5.18C1187.03 8.59 1188.79 12.89 1188.75 18.07C1188.7 25.21 1186 31.31 1180.6 36.36C1175.22 41.41 1168.86 43.92 1161.54 43.87C1155.64 43.83 1150.92 42.11 1147.38 38.7Z" fill="#FAFAFA"/>
<path d="M1204.3 207.13C1195.48 203.42 1188.55 198.29 1183.51 191.74C1178.46 185.19 1175.96 177.72 1176.02 169.33C1176.02 168.08 1176.22 166.03 1176.59 163.17L1213.02 163.4C1212.44 169.65 1214.28 174.7 1218.54 178.57C1222.81 182.44 1228.86 184.39 1236.73 184.44C1243.87 184.49 1249.82 183.24 1254.56 180.67C1259.31 178.11 1261.7 174.33 1261.73 169.33C1261.76 164.87 1259.59 161.28 1255.24 158.58C1250.88 155.87 1243.98 152.8 1234.54 149.34C1225.1 145.9 1217.26 142.53 1211.04 139.28C1204.81 136.02 1199.48 131.53 1195.06 125.79C1190.62 120.04 1188.44 112.8 1188.5 104.05C1188.55 95.3 1191.15 87.56 1196.28 80.8C1201.41 74.05 1208.54 68.83 1217.68 65.14C1226.8 61.45 1237.26 59.63 1249.05 59.71C1260.3 59.79 1270.2 61.73 1278.75 65.52C1287.29 69.33 1293.91 74.59 1298.6 81.32C1303.29 88.04 1305.61 95.68 1305.56 104.26C1305.54 106.4 1305.45 108.01 1305.27 109.08L1270.45 108.86C1271.02 102.61 1269.27 97.6 1265.19 93.83C1261.1 90.05 1255.13 88.14 1247.28 88.08C1240.86 88.04 1235.58 89.4 1231.46 92.13C1227.34 94.88 1225.26 98.57 1225.23 103.21C1225.2 107.85 1227.49 111.66 1232.12 114.63C1236.74 117.61 1243.87 120.92 1253.48 124.54C1263.11 128.35 1270.81 131.84 1276.58 135C1282.36 138.17 1287.38 142.48 1291.64 147.95C1295.9 153.43 1297.99 160.28 1297.93 168.48C1297.88 177.59 1295.05 185.52 1289.48 192.27C1283.9 199.02 1276.28 204.15 1266.62 207.66C1256.96 211.17 1246.05 212.89 1233.91 212.81C1223.01 212.74 1213.16 210.85 1204.35 207.12L1204.3 207.13Z" fill="#FAFAFA"/>
<path d="M1363.26 165.42C1363.06 166.5 1362.97 167.92 1362.96 169.71C1362.94 173.28 1363.95 175.83 1366 177.37C1368.03 178.9 1371.48 179.67 1376.29 179.7L1393.97 179.81L1388.14 211.39L1364.31 211.23C1337.53 211.06 1324.21 199.81 1324.35 177.5C1324.37 173.21 1324.76 169.02 1325.49 164.92L1338.54 93.49L1320.86 93.38L1326.41 62.61L1344.35 62.72L1351.01 26.07L1388.78 26.31L1382.12 62.96L1415.06 63.17L1409.51 93.93L1376.3 93.72L1363.26 165.42Z" fill="#FAFAFA"/>
<path d="M38.51 211.72H0L38.51 11.48H77.01L38.51 211.72Z" fill="#2630AC"/>
</g>
<defs>
<clipPath id="clip0_1_2">
<rect width="1415.06" height="215.12" fill="white"/>
</clipPath>
</defs>
</svg>
